<?xml version="1.0" encoding="UTF-8"?>
<svg id="Layer_2" data-name="Layer 2" xmlns="http://www.w3.org/2000/svg" viewBox="0 0 320.71 233.39">
  <defs>
    <style>
      .cls-1, .cls-2 {
        fill: #c2ad7e;
      }

      .cls-3 {
        fill: #fffefa;
        font-family: Arvo, Arvo;
        font-size: 16.81px;
      }

      .cls-2 {
        font-family: Arvo-Bold, Arvo;
        font-size: 36px;
        font-weight: 700;
      }
    </style>
  </defs>
  <g id="OBJECTS">
    <path class="cls-1" d="M236.03,75.66l-39.68-39.67,2.31-6.71h-9.02L160.36,0l-29.28,29.28h-9.02l2.31,6.71-39.68,39.67,75.67,75.65,75.67-75.65Zm-100.99-13.38c-.74,0-1.33-.6-1.33-1.33s.6-1.33,1.33-1.33h50.64c.74,0,1.33,.6,1.33,1.33s-.6,1.33-1.33,1.33h-50.64Zm10.35,4.92v49l-3.28-3.28v-45.72h3.28Zm4.92,0h3.59v57.51l-3.59-3.59v-53.92Zm8.51,0h3.08v62.43l-1.54,1.54-1.54-1.54v-62.43Zm8,0h3.59v53.92l-3.59,3.59v-57.51Zm8.51,0h3.28v45.72l-3.28,3.28v-49Zm8.2,0h2.15c3.45,0,6.25-2.8,6.25-6.25s-2.8-6.25-6.25-6.25h-50.64c-3.45,0-6.25,2.8-6.25,6.25s2.8,6.25,6.25,6.25h2.15v40.8l-31.99-31.98,26.05-26.04h58.21l26.05,26.04-31.99,31.99v-40.81Zm-1-38.07c-5.05-.56-9.74-2.79-13.39-6.44l-8.78-8.78-8.43,8.43-.35,.35c-3.65,3.65-8.33,5.88-13.39,6.44l22.17-22.17,22.17,22.17Zm-46.88,5.07c7.33,0,14.22-2.85,19.4-8.04l.35-.35,4.95-4.95,4.95,4.95h0s.35,.35,.35,.35c5.18,5.18,12.07,8.04,19.4,8.04h6.7l-3.73,10.85h-55.35l-3.73-10.85h6.69Zm-9.5,6.97l1.78,5.18-29.68,29.67,62.12,62.1,62.12-62.1-29.68-29.67,1.78-5.18,34.5,34.49-68.71,68.69L91.64,75.66l34.5-34.49Z"/>
  </g>
  <g id="TEXTS">
    <g>
      <text class="cls-2" transform="translate(0 205.12)"><tspan x="0" y="0">ACTIVE LAWYER</tspan></text>
      <text class="cls-3" transform="translate(56.73 229.24)"><tspan x="0" y="0">PROTECT YOUR RIGHTS</tspan></text>
    </g>
  </g>
</svg>